<svg xmlns="http://www.w3.org/2000/svg" width="387" height="240" fill="none" viewBox="0 0 387 240">
  <path fill="#010101" d="m74.625 11.045 2.599-.002c1.801.003 3.603.012 5.405.029 2.739.024 5.476.02 8.215.014 1.76.005 3.52.013 5.281.021l2.45-.002c9.26.114 16.614 2.278 23.8 8.303 5 5.593 5 5.593 5 9h131l2-5c3.393-5.513 9.697-9.721 15.905-11.566 3.576-.74 7.211-.64 10.849-.672l2.594-.024c1.813-.014 3.626-.025 5.439-.033 1.838-.011 3.676-.032 5.513-.061 13.125-.212 24.865-.216 35.013 9.298 1.86 2.269 2.898 4.433 4.062 7.12 2.317 5.165 5.175 6.917 10.07 9.532 10.89 5.994 16.93 16.252 20.631 27.81 1.853 7.21 2.507 14.584 3.299 21.971.204 1.809.41 3.617.617 5.425a3701.45 3701.45 0 0 1 2.008 18.2l.76 6.995.391 3.604c.527 4.841 1.057 9.681 1.587 14.521.379 3.496.75 6.992 1.119 10.489 1.098 10.221 2.369 20.206 4.541 30.258.904 4.704 1.137 9.29 1.102 14.071l-.015 2.821c-.326 13.102-4.066 25.131-13.036 34.937-9.447 8.974-22.239 11.833-34.847 11.617-9.156-.795-16.877-4.073-23.602-10.313l-1.574-1.449c-9.119-9.502-12.894-23.254-16.76-35.498-1.212-3.739-2.607-7.41-4.002-11.084-.664-1.969-.664-1.969-.664-3.969-2.381 1.383-4.709 2.792-6.949 4.395-11.112 7.88-22.557 10.607-36.051 9.605-11.737-2.48-22.489-8.579-30-18-6-9.474-6-9.474-6-13h-42l-2 6c-6.059 11.73-15.655 18.903-28 23l-2.082.742c-12.069 3.71-23.897 1.034-34.73-4.679-3.665-2.081-7.038-4.238-10.188-7.063l-.766 3.793c-4.036 18.113-10.637 40.941-26.984 51.52-11.99 6.656-23.998 7.054-37.105 3.726-9.1-3.006-17.16-8.647-21.836-17.093-4.798-10.012-6.7-18.492-6.684-29.508v-3.322c.115-8.392 1.196-16.315 2.811-24.534 1.304-6.714 2.084-13.323 2.564-20.144.938-13.142 2.738-26.138 4.55-39.184 1.222-8.827 2.391-17.596 2.825-26.504.92-13.529 6.551-26.356 16.5-35.687 3.17-2.702 6.19-4.704 9.938-6.5 4.665-2.361 5.798-5.33 7.824-9.992 3.456-6.517 9.296-10.461 16.1-12.938 3.83-1.071 7.56-1.041 11.513-.996Z"/>
  <path fill="#F3F3F3" d="M69 44h23c1.085 14.349 1.085 14.349-1.969 18.996-2.25 2.168-4.564 4.092-7.03 6.004l-1 2c-5.484-2.49-9.802-5.856-13-11-1.102-5.355-.412-10.566 0-16Zm10 41c4.785.373 7.91 3.715 11.136 6.969C93.822 97.962 92.519 104.15 92 111H69l-.313-7.688c-.045-.789-.09-1.579-.138-2.393-.08-4.081.094-5.49 2.81-8.759L74 90l2.563-2.875L79 85Z"/>
  <path fill="#F4F4F4" d="M96 66h17v22c-15.431.965-15.431.965-19.84-1.746C91.252 84.26 89.624 82.226 88 80l-2-1c.539-3.822 2.052-5.235 5-7.625 2.956-2.32 2.956-2.32 5-5.375Z"/>
  <path fill="#F7F7F7" d="M48 66c14.349-1.085 14.349-1.085 18.996 1.969C69.164 70.219 71.088 72.533 73 75l2 1c-2.391 5.362-5.837 9.173-11 12-5.354.973-10.582.364-16 0V66Z"/>
  <path fill="#FAFAFA" d="M141.214 119.392c6.66 4.617 11.818 10.067 14 18 1.324 10.768.175 19.172-6.504 27.985-5.309 5.986-12.068 9.402-19.965 10.496-8.055.324-13.825-1.035-20.531-5.481l-3.25-2.062c-5.042-4.468-9.326-13.419-9.953-20.102-.204-10.718 2.48-16.892 9.929-24.668 10.153-9.681 24.046-11.264 36.274-4.168Zm128.411-.958c7.903 4.742 13.078 11.235 16 20 1.055 10.031-.196 17.654-6 26-5.584 6.599-12.59 10.218-21.105 11.449-9.384.505-16.92-2.165-24.059-8.312-6.109-6.486-9.02-13.048-9.461-21.949.299-9.24 3.696-16.825 10.438-23.188 10.152-7.849 22.414-9.972 34.187-4Z"/>
  <path fill="#F6F6F6" d="M308.5 91.549c4.393 1.985 7.219 4.478 9 9 .697 4.909.536 8.885-1.625 13.375-3.798 4.197-6.564 6.362-12.25 7.187-4.867-.271-8.503-2.398-12.125-5.562-3.013-4.332-3.559-7.781-3-13 3.544-9.844 10.061-12.815 20-11Z"/>
  <path fill="#F7F7F7" d="M342.5 62.549c4.349 2.313 7.121 5.46 9 10 .459 4.752.52 6.997-1.688 11.25-3.572 4.247-6.866 7.51-12.5 8.062-5.714-.468-8.953-2.739-13.25-6.375-2.423-4.555-2.304-8.89-1.563-13.937 4.451-8.902 10.529-10.548 20.001-9Z"/>
  <path fill="#F6F6F6" d="M275.5 62.549c4.349 2.313 7.121 5.46 9 10 .46 4.752.521 6.997-1.688 11.25-3.551 4.223-6.16 6.802-11.687 7.75-4.845.33-7.954-.871-11.625-4-3.284-3.537-4.28-6.282-4.5-11 .197-4.685 1.355-7.419 4.5-11 4.689-4.287 9.965-3.986 16-3Z"/>
  <path fill="#F7F7F7" d="M309.5 33.549c3.987 1.928 6.335 4.942 8 9 .693 4.882.517 8.882-1.562 13.375-3.446 3.71-6.472 6.315-11.645 6.855-5.318-.244-8.627-1.93-12.418-5.625-2.782-3.248-3.292-5.845-3.75-10.043.557-5.293 3.039-7.975 6.375-11.937 4.829-2.616 9.641-2.474 15-1.625Z"/>
  <path fill="#F5F5F5" d="m159.008 71.055 2.984-.004 3.141.012 3.14-.012 2.985.004 2.758.004c2.117.13 2.117.13 3.117 1.13.098 1.663.13 3.332.125 5l.008 2.75c-.133 2.25-.133 2.25-1.133 3.25-1.623.098-3.25.13-4.875.132l-2.985.004-3.14-.012-3.141.012-2.984-.004-2.758-.004c-2.117-.129-2.117-.129-3.117-1.129a80.944 80.944 0 0 1-.125-5l-.008-2.75c.245-4.158 2.352-3.378 6.008-3.383Z"/>
  <path fill="#F1F1F1" d="M208 68a92.359 92.359 0 0 1 10.812 5.125l2.958 1.633L224 76v2a1950.44 1950.44 0 0 1-6.875 4l-1.973 1.156C210.227 86 210.227 86 208 86V68Z"/>
</svg>
